<?xml version="1.0" encoding="UTF-8"?><svg id="_レイヤー_2" xmlns="http://www.w3.org/2000/svg" viewBox="0 0 178.83 169.9"><defs><style>.cls-1{fill:#d41100;stroke:#fff;stroke-miterlimit:10;}.cls-2{opacity:.93;}</style></defs><g id="_レイヤー_2-2"><g id="_レイヤー_1-2"><g class="cls-2"><path class="cls-1" d="m14.2,104.29l-.16-100.21H.5V.5h61.3c20.98,0,36.62,2.73,46.9,8.19,10.28,5.46,15.43,15.22,15.43,29.28,0,15.57-6.25,26.3-18.76,32.2-11.67,5.4-28.01,8.1-49,8.1h-1.67l-.37,26.03m.37-97.19v70.6h4.38c8.34,0,14.1-2.57,17.3-7.72s4.79-13.49,4.79-25.04v-9.04c0-10.66-1.49-18.13-4.48-22.4-2.99-4.27-8.44-6.4-16.37-6.4h-5.63.01Z"/><path class="cls-1" d="m63.23,38.82h-8.92v-3.02l45.13-.08c18.07,0,30.89.85,38.46,2.54,7.57,1.69,12.89,3.74,15.95,6.12,6.67,4.89,10.01,12.68,10.01,23.35s-2.92,18.3-8.75,22.88c-5.84,4.58-14.74,7.31-26.69,8.19v.56c11.26,1.38,19.11,4.4,23.56,9.04s6.67,12.42,6.67,23.35v9.98c0,6.52.38,10.92,1.15,13.18.76,2.26,2.4,3.39,4.9,3.39s4.48-1.04,5.94-3.11,2.81-6.43,4.07-13.09l3.55.37c-1.53,10.67-4.2,17.82-8.03,21.47-3.82,3.64-11.44,5.46-22.83,5.46s-19.49-2.42-24.29-7.25c-4.79-4.83-7.19-13.91-7.19-27.21v-13.74c0-7.03-1.02-12.17-3.02-15.44-2.02-3.26-5.73-4.89-11.15-4.89h-10.62l-.42,63.08s.42-.27.42,1.74v2.01h-27.88m27.46-128.41v58h6.67c7.93,0,13.79-2.19,17.62-6.59,3.82-4.39,5.73-11.55,5.73-21.47v-5.46c0-9.92-1.84-16.47-5.53-19.67-3.68-3.2-9.55-4.8-17.62-4.8h-6.88.01,0Z"/></g><path class="cls-1" d="m34.64,142.65c12.08,0,21.88-8.18,21.88-18.26s-9.79-18.26-21.88-18.26-21.88,8.18-21.88,18.26,9.79,18.26,21.88,18.26Z"/></g></g></svg>