<svg width="182" height="172" viewBox="0 0 182 172" fill="none" xmlns="http://www.w3.org/2000/svg">
<g clip-path="url(#clip0_544_605)">
<g style="mix-blend-mode:multiply">
<g opacity="0.93">
<path d="M44.1094 75.4762L44.0071 2.59935H35.127V0H75.3105C89.0656 0 99.3198 1.98429 106.059 5.95287C112.797 9.92145 116.174 17.0239 116.174 27.2455C116.174 38.5655 112.074 46.3709 103.873 50.6616C96.2209 54.5863 85.5136 56.5486 71.7512 56.5486H70.6549L70.4137 75.4762M70.6549 4.79598V56.1386H73.5272C78.9942 56.1386 82.7728 54.2714 84.8704 50.5225C86.968 46.7809 88.0132 40.7109 88.0132 32.3124V25.7372C88.0132 17.9831 87.0338 12.5501 85.075 9.44551C83.1163 6.34094 79.5423 4.78866 74.3458 4.78866H70.6549V4.79598Z" fill="white"/>
<path d="M76.2486 27.8679H70.4016V25.6713L99.9875 25.6127C111.835 25.6127 120.24 26.2278 125.203 27.4579C130.165 28.688 133.652 30.1744 135.662 31.9097C140.032 35.4683 142.225 41.1283 142.225 48.8897C142.225 56.6511 140.31 62.194 136.487 65.5255C132.658 68.8571 126.825 70.8414 118.99 71.4784V71.8884C126.372 72.8915 131.517 75.0882 134.434 78.4637C137.35 81.8392 138.804 87.4991 138.804 95.4436V102.7C138.804 107.445 139.053 110.644 139.557 112.284C140.054 113.925 141.129 114.752 142.766 114.752C144.403 114.752 145.704 113.998 146.661 112.489C147.619 110.981 148.503 107.811 149.329 102.971L151.653 103.242C150.652 111.003 148.898 116.202 146.391 118.852C143.884 121.496 138.892 122.821 131.422 122.821C123.953 122.821 118.647 121.064 115.497 117.549C112.354 114.034 110.783 107.437 110.783 97.7647V87.7701C110.783 82.6592 110.117 78.9176 108.802 76.5453C107.479 74.1729 105.045 72.9867 101.493 72.9867H94.5278L94.2501 118.86C94.2501 118.86 94.5278 118.662 94.5278 120.126V121.591H76.2486M94.2501 28.2121V70.3874H98.6208C103.817 70.3874 107.662 68.7912 110.169 65.5987C112.676 62.4063 113.925 57.2003 113.925 49.988V46.0194C113.925 38.8072 112.719 34.0405 110.3 31.712C107.888 29.3836 104.037 28.2194 98.7523 28.2194H94.2428L94.2501 28.2121Z" fill="white"/>
</g>
<path d="M57.5057 103.37C65.426 103.37 71.8467 97.4236 71.8467 90.0881C71.8467 82.7525 65.426 76.8058 57.5057 76.8058C49.5855 76.8058 43.1648 82.7525 43.1648 90.0881C43.1648 97.4236 49.5855 103.37 57.5057 103.37Z" fill="white"/>
</g>
</g>
<path d="M11.1719 161.656V163H1.21875V161.656H1.625C2.42708 161.656 3.0625 161.51 3.53125 161.219C4.01042 160.917 4.25 160.297 4.25 159.359V143.672C4.25 142.776 4.00521 142.193 3.51562 141.922C3.02604 141.641 2.39583 141.5 1.625 141.5H1.21875V140.156H10.2031C11.5469 140.156 12.7135 140.307 13.7031 140.609C14.6927 140.911 15.5104 141.354 16.1562 141.938C17.4375 143.083 18.0781 144.719 18.0781 146.844C18.0781 147.792 17.9271 148.703 17.625 149.578C17.3333 150.443 16.849 151.214 16.1719 151.891C15.4948 152.557 14.6094 153.094 13.5156 153.5C12.4219 153.906 11.0833 154.109 9.5 154.109H7.48438V159.516C7.48438 160.401 7.72396 160.979 8.20312 161.25C8.68229 161.521 9.31771 161.656 10.1094 161.656H11.1719ZM9.65625 141.688H7.48438V152.594H9.1875C11.1354 152.594 12.526 152.161 13.3594 151.297C14.2031 150.422 14.625 148.979 14.625 146.969C14.625 146.073 14.5365 145.297 14.3594 144.641C14.1823 143.974 13.8958 143.422 13.5 142.984C12.7083 142.12 11.4271 141.688 9.65625 141.688ZM41.2656 151.547C41.2656 155.141 40.401 157.984 38.6719 160.078C37.8177 161.109 36.7656 161.906 35.5156 162.469C34.2656 163.031 32.8333 163.312 31.2188 163.312C29.5208 163.312 28.0417 163.031 26.7812 162.469C25.5208 161.906 24.474 161.109 23.6406 160.078C22.8073 159.047 22.1823 157.807 21.7656 156.359C21.349 154.901 21.1406 153.286 21.1406 151.516C21.1406 149.745 21.349 148.141 21.7656 146.703C22.1823 145.255 22.8073 144.021 23.6406 143C24.474 141.979 25.526 141.193 26.7969 140.641C28.0677 140.078 29.5521 139.797 31.25 139.797C32.8646 139.797 34.2917 140.078 35.5312 140.641C36.7708 141.193 37.8177 141.979 38.6719 143C40.401 145.094 41.2656 147.943 41.2656 151.547ZM24.6875 151.547C24.6875 153.13 24.8021 154.542 25.0312 155.781C25.2708 157.021 25.651 158.073 26.1719 158.938C26.6927 159.792 27.3646 160.448 28.1875 160.906C29.0208 161.365 30.0312 161.594 31.2188 161.594C32.4062 161.594 33.4167 161.365 34.25 160.906C35.0833 160.448 35.7552 159.792 36.2656 158.938C36.7865 158.073 37.1562 157.021 37.375 155.781C37.6042 154.542 37.7188 153.13 37.7188 151.547C37.7188 149.964 37.6042 148.552 37.375 147.312C37.1562 146.062 36.7865 145.01 36.2656 144.156C35.7552 143.302 35.0885 142.651 34.2656 142.203C33.4427 141.755 32.4375 141.531 31.25 141.531C30.0625 141.531 29.0521 141.755 28.2188 142.203C27.3854 142.651 26.7083 143.302 26.1875 144.156C25.6562 145.01 25.2708 146.062 25.0312 147.312C24.8021 148.552 24.6875 149.964 24.6875 151.547ZM56.4375 152.156L60.8281 159.094C61.3698 159.948 61.8958 160.589 62.4062 161.016C62.9167 161.443 63.5104 161.656 64.1875 161.656H64.2812V163H63.8281C62.8281 163 62.0052 162.964 61.3594 162.891C60.724 162.818 60.1823 162.677 59.7344 162.469C59.2865 162.26 58.901 161.969 58.5781 161.594C58.2656 161.219 57.9271 160.729 57.5625 160.125L53.2344 152.922H50.5781V159.516C50.5781 160.401 50.8177 160.979 51.2969 161.25C51.776 161.521 52.4115 161.656 53.2031 161.656H53.625V163H44.3125V161.656H44.7188C45.5104 161.656 46.1458 161.521 46.625 161.25C47.1042 160.979 47.3438 160.401 47.3438 159.516V143.672C47.3438 142.776 47.099 142.193 46.6094 141.922C46.1198 141.641 45.4896 141.5 44.7188 141.5H44.3125V140.156H52.9219C58.401 140.156 61.1406 142.214 61.1406 146.328C61.1406 147.182 61 147.932 60.7188 148.578C60.4479 149.214 60.0885 149.766 59.6406 150.234C59.1927 150.703 58.6875 151.094 58.125 151.406C57.5625 151.719 57 151.969 56.4375 152.156ZM52.75 141.688H50.5781V151.422H52.8281C54.6406 151.422 55.9219 151.005 56.6719 150.172C57.0469 149.755 57.3125 149.234 57.4688 148.609C57.6354 147.984 57.7188 147.255 57.7188 146.422C57.7188 144.703 57.3438 143.484 56.5938 142.766C55.8333 142.047 54.5521 141.688 52.75 141.688ZM78.5938 141.75H75.4844V159.359C75.4844 160.307 75.724 160.927 76.2031 161.219C76.6823 161.51 77.3177 161.656 78.1094 161.656H78.8438V163H68.8906V161.656H69.625C70.4167 161.656 71.0521 161.521 71.5312 161.25C72.0104 160.979 72.25 160.401 72.25 159.516V141.75H69.1875C68.2917 141.75 67.651 141.995 67.2656 142.484C66.8906 142.974 66.6562 143.604 66.5625 144.375L66.3906 145.75H64.7344L64.8906 140.156H82.9062L83.0625 145.75H81.4062L81.25 144.375C81.1562 143.604 80.9167 142.974 80.5312 142.484C80.1458 141.995 79.5 141.75 78.5938 141.75ZM96.4531 141.75H91.2031V151H98.9219V152.562H91.2031V159.359C91.2031 160.307 91.4427 160.927 91.9219 161.219C92.401 161.51 93.0365 161.656 93.8281 161.656H94.8906V163H84.9375V161.656H85.3438C86.1354 161.656 86.7708 161.521 87.25 161.25C87.7292 160.979 87.9688 160.401 87.9688 159.516V143.672C87.9688 142.776 87.724 142.193 87.2344 141.922C86.7448 141.641 86.1146 141.5 85.3438 141.5H84.9375V140.156H101.062L101.219 145.75H99.5625L99.4062 144.375C99.3229 143.604 99.0469 142.974 98.5781 142.484C98.1094 141.995 97.401 141.75 96.4531 141.75ZM124.516 151.547C124.516 155.141 123.651 157.984 121.922 160.078C121.068 161.109 120.016 161.906 118.766 162.469C117.516 163.031 116.083 163.312 114.469 163.312C112.771 163.312 111.292 163.031 110.031 162.469C108.771 161.906 107.724 161.109 106.891 160.078C106.057 159.047 105.432 157.807 105.016 156.359C104.599 154.901 104.391 153.286 104.391 151.516C104.391 149.745 104.599 148.141 105.016 146.703C105.432 145.255 106.057 144.021 106.891 143C107.724 141.979 108.776 141.193 110.047 140.641C111.318 140.078 112.802 139.797 114.5 139.797C116.115 139.797 117.542 140.078 118.781 140.641C120.021 141.193 121.068 141.979 121.922 143C123.651 145.094 124.516 147.943 124.516 151.547ZM107.938 151.547C107.938 153.13 108.052 154.542 108.281 155.781C108.521 157.021 108.901 158.073 109.422 158.938C109.943 159.792 110.615 160.448 111.438 160.906C112.271 161.365 113.281 161.594 114.469 161.594C115.656 161.594 116.667 161.365 117.5 160.906C118.333 160.448 119.005 159.792 119.516 158.938C120.036 158.073 120.406 157.021 120.625 155.781C120.854 154.542 120.969 153.13 120.969 151.547C120.969 149.964 120.854 148.552 120.625 147.312C120.406 146.062 120.036 145.01 119.516 144.156C119.005 143.302 118.339 142.651 117.516 142.203C116.693 141.755 115.688 141.531 114.5 141.531C113.312 141.531 112.302 141.755 111.469 142.203C110.635 142.651 109.958 143.302 109.438 144.156C108.906 145.01 108.521 146.062 108.281 147.312C108.052 148.552 107.938 149.964 107.938 151.547ZM144.938 156.125L144.719 163H127.562V161.656H127.969C128.771 161.656 129.406 161.51 129.875 161.219C130.354 160.917 130.594 160.297 130.594 159.359V143.797C130.594 142.859 130.354 142.245 129.875 141.953C129.406 141.651 128.771 141.5 127.969 141.5H127.562V140.156H136.875V141.5H136.453C135.682 141.5 135.052 141.641 134.562 141.922C134.073 142.193 133.828 142.776 133.828 143.672V161.406H140.141C141.047 161.406 141.719 161.115 142.156 160.531C142.594 159.948 142.859 159.276 142.953 158.516L143.266 156.125H144.938ZM156.812 161.656V163H147.5V161.656H147.906C148.708 161.656 149.344 161.51 149.812 161.219C150.292 160.917 150.531 160.297 150.531 159.359V143.797C150.531 142.859 150.292 142.245 149.812 141.953C149.344 141.651 148.708 141.5 147.906 141.5H147.5V140.156H156.812V141.5H156.391C155.599 141.5 154.964 141.646 154.484 141.938C154.005 142.229 153.766 142.849 153.766 143.797V159.359C153.766 160.307 154.005 160.927 154.484 161.219C154.964 161.51 155.599 161.656 156.391 161.656H156.812ZM179.953 151.547C179.953 155.141 179.089 157.984 177.359 160.078C176.505 161.109 175.453 161.906 174.203 162.469C172.953 163.031 171.521 163.312 169.906 163.312C168.208 163.312 166.729 163.031 165.469 162.469C164.208 161.906 163.161 161.109 162.328 160.078C161.495 159.047 160.87 157.807 160.453 156.359C160.036 154.901 159.828 153.286 159.828 151.516C159.828 149.745 160.036 148.141 160.453 146.703C160.87 145.255 161.495 144.021 162.328 143C163.161 141.979 164.214 141.193 165.484 140.641C166.755 140.078 168.24 139.797 169.938 139.797C171.552 139.797 172.979 140.078 174.219 140.641C175.458 141.193 176.505 141.979 177.359 143C179.089 145.094 179.953 147.943 179.953 151.547ZM163.375 151.547C163.375 153.13 163.49 154.542 163.719 155.781C163.958 157.021 164.339 158.073 164.859 158.938C165.38 159.792 166.052 160.448 166.875 160.906C167.708 161.365 168.719 161.594 169.906 161.594C171.094 161.594 172.104 161.365 172.938 160.906C173.771 160.448 174.443 159.792 174.953 158.938C175.474 158.073 175.844 157.021 176.062 155.781C176.292 154.542 176.406 153.13 176.406 151.547C176.406 149.964 176.292 148.552 176.062 147.312C175.844 146.062 175.474 145.01 174.953 144.156C174.443 143.302 173.776 142.651 172.953 142.203C172.13 141.755 171.125 141.531 169.938 141.531C168.75 141.531 167.74 141.755 166.906 142.203C166.073 142.651 165.396 143.302 164.875 144.156C164.344 145.01 163.958 146.062 163.719 147.312C163.49 148.552 163.375 149.964 163.375 151.547Z" fill="white"/>
<defs>
<clipPath id="clip0_544_605">
<rect width="118" height="130.897" fill="white" transform="translate(32)"/>
</clipPath>
</defs>
</svg>
