<svg width="332" height="367" viewBox="0 0 332 367" fill="none" xmlns="http://www.w3.org/2000/svg">
<g clip-path="url(#clip0_519_534)">
<g style="mix-blend-mode:multiply">
<g opacity="0.93">
<path d="M34.4411 211.078L34.1537 7.26936H9.21094V0H122.079C160.715 0 189.517 5.54929 208.445 16.6479C227.373 27.7464 236.857 47.6092 236.857 76.1952C236.857 107.853 225.34 129.681 202.307 141.681C180.813 152.657 150.738 158.144 112.082 158.144H109.003L108.325 211.078M109.003 13.4125V156.998H117.07C132.426 156.998 143.04 151.776 148.931 141.292C154.823 130.828 157.759 113.853 157.759 90.3653V71.9769C157.759 50.2917 155.008 35.0977 149.506 26.4154C144.004 17.7331 133.966 13.392 119.37 13.392H109.003V13.4125Z" fill="white"/>
<path d="M124.714 77.9358H108.291V71.7927L191.392 71.6289C224.67 71.6289 248.278 73.349 262.218 76.7891C276.157 80.2293 285.949 84.3861 291.595 89.2392C303.871 99.191 310.03 115.02 310.03 136.725C310.03 158.431 304.651 173.932 293.914 183.249C283.157 192.566 266.775 198.116 244.768 199.897V201.044C265.502 203.849 279.955 209.992 288.146 219.432C296.337 228.872 300.422 244.701 300.422 266.919V287.211C300.422 300.481 301.12 309.429 302.537 314.016C303.933 318.603 306.95 320.917 311.549 320.917C316.147 320.917 319.802 318.808 322.491 314.589C325.18 310.371 327.664 301.504 329.984 287.969L336.512 288.727C333.7 310.432 328.773 324.971 321.731 332.384C314.69 339.776 300.668 343.482 279.688 343.482C258.707 343.482 243.803 338.568 234.955 328.739C226.128 318.91 221.714 300.46 221.714 273.41V245.459C221.714 231.166 219.846 220.702 216.15 214.067C212.435 207.433 205.599 204.116 195.621 204.116H176.057L175.277 332.404C175.277 332.404 176.057 331.851 176.057 335.947V340.042H124.714M175.277 78.8983V196.846H187.554C202.15 196.846 212.948 192.382 219.989 183.454C227.031 174.526 230.541 159.967 230.541 139.797V128.698C230.541 108.529 227.154 95.198 220.359 88.6863C213.584 82.1746 202.766 78.9187 187.923 78.9187H175.257L175.277 78.8983Z" fill="white"/>
</g>
<path d="M72.069 289.087C94.3157 289.087 112.35 272.456 112.35 251.941C112.35 231.427 94.3157 214.796 72.069 214.796C49.8223 214.796 31.7878 231.427 31.7878 251.941C31.7878 272.456 49.8223 289.087 72.069 289.087Z" fill="white"/>
</g>
</g>
<defs>
<clipPath id="clip0_519_534">
<rect width="331.441" height="366.069" fill="white" transform="translate(0.427979)"/>
</clipPath>
</defs>
</svg>
